# xmcd CD database file
#
# Track frame offsets:
#	150
#	24476
#	47922
#	74170
#	93543
#	116791
#	135504
#	150935
#	182576
#	191839
#	202517
#
# Disc length: 2920 seconds
#
# Revision: 0
# Processed by: cddbd v1.5.2PL0 Copyright (c) Steve Scherf et al.
# Submitted via: CDex 1.51
#
DISCID=940b660b
DTITLE=David Lanz - Painting The Sun
DYEAR=2008
DGENRE=New Age
TTITLE0=Painting The Sun
TTITLE1=Spanish Blue
TTITLE2=The Enchantment
TTITLE3=Her Solitude
TTITLE4=First Snow
TTITLE5=Turn Turn Turn (To Everything There Is A Reason)
TTITLE6=Hymn (Sanctuary Rose - Rondo In G Minor)
TTITLE7=Hymn - Evening Song
TTITLE8=Hymn - Midnight Reverie
TTITLE9=Hymn - Daybreak Flower
TTITLE10=Sleeping Dove
EXTD=YEAR: 2008
EXTT0=
EXTT1=
EXTT2=
EXTT3=
EXTT4=
EXTT5=
EXTT6=
EXTT7=
EXTT8=
EXTT9=
EXTT10=
PLAYORDER=
